<?xml version="1.0" ?><!DOCTYPE svg  PUBLIC '-//W3C//DTD SVG 1.1//EN'  'http://www.w3.org/Graphics/SVG/1.1/DTD/svg11.dtd'><svg height="8.4666mm" style="shape-rendering:geometricPrecision; text-rendering:geometricPrecision; image-rendering:optimizeQuality; fill-rule:evenodd; clip-rule:evenodd" version="1.1" viewBox="0 0 846.66 846.66" width="8.4666mm" xml:space="preserve" xmlns="http://www.w3.org/2000/svg" xmlns:xlink="http://www.w3.org/1999/xlink"><defs><style type="text/css">
  </style></defs><g id="Layer_x0020_1"><path class="fil0" d="M95.68 152.17l13.93 0 0 -15.74c0,-48.12 39.29,-87.41 87.4,-87.41l553.98 0c48.11,0 87.4,39.29 87.4,87.41l0 537.31c0,11.46 -9.3,20.75 -20.76,20.75l-80.58 0 0 82.39c0,11.46 -9.3,20.76 -20.76,20.76l-687.25 0c-11.47,0 -20.76,-9.3 -20.76,-20.76l0 -537.31c0,-48.12 39.28,-87.4 87.4,-87.4zm27.27 297.15c-27.31,0 -27.31,-41.52 0,-41.52l168.28 0c27.31,0 27.31,41.52 0,41.52l-168.28 0zm0 175.53c-27.31,0 -27.31,-41.52 0,-41.52l168.28 0c27.31,0 27.31,41.52 0,41.52l-168.28 0zm0 -87.76c-27.31,0 -27.31,-41.52 0,-41.52l168.28 0c27.31,0 27.31,41.52 0,41.52l-168.28 0zm278.67 -129.29l220.76 0c11.47,0 20.76,9.3 20.76,20.76l0 175.53c0,11.47 -9.29,20.76 -20.76,20.76l-220.76 0c-11.46,0 -20.76,-9.29 -20.76,-20.76l0 -175.53c0,-11.46 9.3,-20.76 20.76,-20.76zm200 41.52l-179.24 0 0 134.01 179.24 0 0 -134.01zm-485.01 -208.9l512.11 0c11.46,0 20.76,9.3 20.76,20.76l0 72.38c0,11.46 -9.3,20.76 -20.76,20.76l-512.11 0c-11.46,0 -20.76,-9.3 -20.76,-20.76l0 -72.38c0,-11.46 9.3,-20.76 20.76,-20.76zm491.35 41.52l-470.59 0 0 30.86 470.59 0 0 -30.86zm-456.83 -129.77l498.52 0c48.12,0 87.4,39.29 87.4,87.4l0 413.41 59.82 0 0 -516.55c0,-25.19 -20.69,-45.89 -45.88,-45.89l-553.98 0c-25.19,0 -45.88,20.7 -45.88,45.89l0 15.74zm498.52 41.52l-553.97 0c-25.19,0 -45.89,20.69 -45.89,45.88l0 516.55 645.74 0 0 -516.55c0,-25.19 -20.69,-45.88 -45.88,-45.88z"/></g></svg>